<mxfile host="app.diagrams.net" agent="Mozilla/5.0 (Macintosh; Intel Mac OS X 10_15_7) AppleWebKit/537.36 (KHTML, like Gecko) Chrome/138.0.0.0 Safari/537.36" version="27.2.0">
  <diagram name="Seite-1" id="oGz3Ylj52rfAJRxRs8hS">
    <mxGraphModel dx="1186" dy="694" grid="1" gridSize="10" guides="1" tooltips="1" connect="1" arrows="1" fold="1" page="1" pageScale="1" pageWidth="827" pageHeight="1169" math="0" shadow="0">
      <root>
        <mxCell id="0" />
        <mxCell id="1" parent="0" />
        <mxCell id="XNRYGMIPBNhYfcZPlQVv-1" value="Preliminary Reading" style="rounded=0;whiteSpace=wrap;html=1;" vertex="1" parent="1">
          <mxGeometry x="260" y="90" width="200" height="30" as="geometry" />
        </mxCell>
        <mxCell id="XNRYGMIPBNhYfcZPlQVv-2" value="Systematic Literature Review" style="rounded=0;whiteSpace=wrap;html=1;" vertex="1" parent="1">
          <mxGeometry x="260" y="130" width="200" height="30" as="geometry" />
        </mxCell>
        <mxCell id="XNRYGMIPBNhYfcZPlQVv-3" value="Prototyping" style="rounded=0;whiteSpace=wrap;html=1;" vertex="1" parent="1">
          <mxGeometry x="260" y="240" width="200" height="30" as="geometry" />
        </mxCell>
        <mxCell id="XNRYGMIPBNhYfcZPlQVv-4" value="&lt;span style=&quot;color: rgb(0, 0, 0); font-family: Helvetica; font-size: 12px; font-style: normal; font-variant-ligatures: normal; font-variant-caps: normal; font-weight: 400; letter-spacing: normal; orphans: 2; text-align: center; text-indent: 0px; text-transform: none; widows: 2; word-spacing: 0px; -webkit-text-stroke-width: 0px; white-space: normal; background-color: rgb(236, 236, 236); text-decoration-thickness: initial; text-decoration-style: initial; text-decoration-color: initial; display: inline !important; float: none;&quot;&gt;Preparation&lt;/span&gt;" style="text;whiteSpace=wrap;html=1;" vertex="1" parent="1">
          <mxGeometry x="230" y="60" width="100" height="40" as="geometry" />
        </mxCell>
        <mxCell id="XNRYGMIPBNhYfcZPlQVv-5" value="&lt;span style=&quot;color: rgb(0, 0, 0); font-family: Helvetica; font-size: 12px; font-style: normal; font-variant-ligatures: normal; font-variant-caps: normal; font-weight: 400; letter-spacing: normal; orphans: 2; text-align: center; text-indent: 0px; text-transform: none; widows: 2; word-spacing: 0px; -webkit-text-stroke-width: 0px; white-space: normal; background-color: rgb(236, 236, 236); text-decoration-thickness: initial; text-decoration-style: initial; text-decoration-color: initial; float: none; display: inline !important;&quot;&gt;Implementation&lt;/span&gt;" style="text;whiteSpace=wrap;html=1;" vertex="1" parent="1">
          <mxGeometry x="220" y="200" width="100" height="40" as="geometry" />
        </mxCell>
        <mxCell id="XNRYGMIPBNhYfcZPlQVv-6" value="Comparative/iterative development" style="rounded=0;whiteSpace=wrap;html=1;" vertex="1" parent="1">
          <mxGeometry x="260" y="290" width="200" height="30" as="geometry" />
        </mxCell>
        <mxCell id="XNRYGMIPBNhYfcZPlQVv-7" value="&lt;span style=&quot;color: rgb(0, 0, 0); font-family: Helvetica; font-size: 12px; font-style: normal; font-variant-ligatures: normal; font-variant-caps: normal; font-weight: 400; letter-spacing: normal; orphans: 2; text-align: center; text-indent: 0px; text-transform: none; widows: 2; word-spacing: 0px; -webkit-text-stroke-width: 0px; white-space: normal; background-color: rgb(236, 236, 236); text-decoration-thickness: initial; text-decoration-style: initial; text-decoration-color: initial; float: none; display: inline !important;&quot;&gt;User Study&lt;/span&gt;" style="text;whiteSpace=wrap;html=1;" vertex="1" parent="1">
          <mxGeometry x="210" y="350" width="100" height="40" as="geometry" />
        </mxCell>
        <mxCell id="XNRYGMIPBNhYfcZPlQVv-8" value="Definition of boundary conditions" style="rounded=0;whiteSpace=wrap;html=1;" vertex="1" parent="1">
          <mxGeometry x="260" y="390" width="200" height="30" as="geometry" />
        </mxCell>
        <mxCell id="XNRYGMIPBNhYfcZPlQVv-9" value="Definition of hypothesis" style="rounded=0;whiteSpace=wrap;html=1;" vertex="1" parent="1">
          <mxGeometry x="260" y="430" width="200" height="30" as="geometry" />
        </mxCell>
        <mxCell id="XNRYGMIPBNhYfcZPlQVv-10" value="Finalization of study design" style="rounded=0;whiteSpace=wrap;html=1;" vertex="1" parent="1">
          <mxGeometry x="260" y="470" width="200" height="30" as="geometry" />
        </mxCell>
        <mxCell id="XNRYGMIPBNhYfcZPlQVv-11" value="Data analysis" style="rounded=0;whiteSpace=wrap;html=1;" vertex="1" parent="1">
          <mxGeometry x="260" y="510" width="200" height="30" as="geometry" />
        </mxCell>
        <mxCell id="XNRYGMIPBNhYfcZPlQVv-13" value="" style="endArrow=classic;html=1;rounded=0;" edge="1" parent="1">
          <mxGeometry width="50" height="50" relative="1" as="geometry">
            <mxPoint x="510" y="90" as="sourcePoint" />
            <mxPoint x="510" y="540" as="targetPoint" />
          </mxGeometry>
        </mxCell>
      </root>
    </mxGraphModel>
  </diagram>
</mxfile>
